<svg width="18" height="21" viewBox="0 0 18 21" fill="none" xmlns="http://www.w3.org/2000/svg">
<path d="M9 0.5C10.0609 0.5 11.078 0.92173 11.8281 1.67188C12.5783 2.42202 13 3.43913 13 4.5V7.25H16.5C16.7652 7.25 17.0195 7.35543 17.207 7.54297C17.3946 7.73051 17.5 7.98478 17.5 8.25V18.75C17.5 19.0152 17.3946 19.2695 17.207 19.457C17.0195 19.6446 16.7652 19.75 16.5 19.75H1.5C1.23478 19.75 0.980506 19.6446 0.792969 19.457C0.605432 19.2695 0.5 19.0152 0.5 18.75V8.25C0.5 7.98478 0.605432 7.73051 0.792969 7.54297C0.980505 7.35543 1.23478 7.25 1.5 7.25H5V4.5C5 3.43913 5.42173 2.42202 6.17188 1.67188C6.92202 0.92173 7.93913 0.5 9 0.5ZM9 9.25C8.35135 9.25 7.72349 9.47941 7.22754 9.89746C6.73159 10.3156 6.39976 10.8958 6.29004 11.5352C6.18035 12.1745 6.29974 12.8321 6.62793 13.3916C6.89435 13.8458 7.28559 14.209 7.75 14.4463V16.5C7.75 16.8315 7.88179 17.1494 8.11621 17.3838C8.35063 17.6182 8.66848 17.75 9 17.75C9.33152 17.75 9.64937 17.6182 9.88379 17.3838C10.1182 17.1494 10.25 16.8315 10.25 16.5V14.4463C10.7144 14.209 11.1057 13.8458 11.3721 13.3916C11.7003 12.8321 11.8197 12.1745 11.71 11.5352C11.6002 10.8958 11.2684 10.3156 10.7725 9.89746C10.2765 9.47941 9.64865 9.25 9 9.25ZM9 1C8.07174 1 7.18177 1.36901 6.52539 2.02539C5.86901 2.68177 5.5 3.57174 5.5 4.5V7.25H12.5V4.5C12.5 3.57174 12.131 2.68177 11.4746 2.02539C10.8182 1.36901 9.92826 1 9 1Z" fill="#112548" stroke="#112548"/>
</svg>
